<svg width="66" height="29" viewBox="0 0 66 29" fill="none" xmlns="http://www.w3.org/2000/svg">
<path fill-rule="evenodd" clip-rule="evenodd" d="M0 27.6055C0 27.2711 0.217274 27 0.485294 27H65.5147C65.7827 27 66 27.2711 66 27.6055C66 27.9399 65.7827 28.211 65.5147 28.211H0.485294C0.217274 28.211 0 27.9399 0 27.6055Z" fill="#3B6875"/>
<mask id="mask0_2229_3947" style="mask-type:alpha" maskUnits="userSpaceOnUse" x="3" y="2" width="60" height="24">
<path fill-rule="evenodd" clip-rule="evenodd" d="M17.6 2.4H3.4V13.6H17.6V2.4ZM3 2V14H18V2H3Z" fill="#3B6875"/>
<path fill-rule="evenodd" clip-rule="evenodd" d="M32.6 2.4H18.4V13.6H32.6V2.4ZM18 2V14H33V2H18Z" fill="#3B6875"/>
<path fill-rule="evenodd" clip-rule="evenodd" d="M47.6 2.4H33.4V13.6H47.6V2.4ZM33 2V14H48V2H33Z" fill="#3B6875"/>
<path fill-rule="evenodd" clip-rule="evenodd" d="M62.6 2.4H48.4V13.6H62.6V2.4ZM48 2V14H63V2H48Z" fill="#3B6875"/>
<path fill-rule="evenodd" clip-rule="evenodd" d="M17.6 14.4H3.4V25.6H17.6V14.4ZM3 14V26H18V14H3Z" fill="#3B6875"/>
<path fill-rule="evenodd" clip-rule="evenodd" d="M32.6 14.4H18.4V25.6H32.6V14.4ZM18 14V26H33V14H18Z" fill="#3B6875"/>
<path fill-rule="evenodd" clip-rule="evenodd" d="M47.6 14.4H33.4V25.6H47.6V14.4ZM33 14V26H48V14H33Z" fill="#3B6875"/>
<path fill-rule="evenodd" clip-rule="evenodd" d="M62.6 14.4H48.4V25.6H62.6V14.4ZM48 14V26H63V14H48Z" fill="#3B6875"/>
</mask>
<g mask="url(#mask0_2229_3947)">
<path d="M7 14C7 7.37258 12.3726 2 19 2H46C52.6274 2 58 7.37258 58 14V14C58 20.6274 52.6274 26 46 26H19C12.3726 26 7 20.6274 7 14V14Z" fill="url(#paint0_radial_2229_3947)"/>
</g>
<path d="M61.6469 22.9595C61.3598 22.9595 61.065 22.9284 60.7625 22.8664C60.4599 22.8043 60.1806 22.6996 59.9246 22.5522C59.6686 22.397 59.4514 22.1914 59.2729 21.9354C59.0945 21.6716 58.9781 21.3458 58.9238 20.9579H60.5763C60.6228 21.0976 60.7043 21.2178 60.8206 21.3187C60.9448 21.4195 61.0844 21.4932 61.2396 21.5398C61.4025 21.5863 61.5654 21.6096 61.7283 21.6096C61.8369 21.6096 61.9455 21.6018 62.0542 21.5863C62.1628 21.5708 62.2636 21.5398 62.3567 21.4932C62.4498 21.4467 62.5235 21.3885 62.5778 21.3187C62.6321 21.2411 62.6593 21.1441 62.6593 21.0277C62.6593 20.9036 62.6205 20.8066 62.5429 20.7368C62.4653 20.667 62.3567 20.6127 62.2171 20.5739C62.0774 20.5274 61.9184 20.4847 61.74 20.4459C61.4219 20.3761 61.0805 20.2985 60.7159 20.2132C60.3513 20.1278 60.0371 20.0037 59.7733 19.8408C59.6647 19.7632 59.5677 19.6779 59.4824 19.5848C59.3971 19.4917 59.3272 19.3869 59.2729 19.2706C59.2186 19.1542 59.176 19.0339 59.1449 18.9098C59.1139 18.7779 59.0984 18.6383 59.0984 18.4909C59.0984 18.1573 59.1682 17.8741 59.3078 17.6414C59.4552 17.4009 59.6492 17.207 59.8897 17.0596C60.1302 16.9122 60.3978 16.8074 60.6926 16.7454C60.9874 16.6755 61.29 16.6406 61.6003 16.6406C62.0192 16.6406 62.4071 16.7104 62.764 16.8501C63.1209 16.982 63.4157 17.1914 63.6484 17.4785C63.8811 17.7578 64.0247 18.1224 64.079 18.5724H62.5196C62.4886 18.4017 62.3839 18.2659 62.2054 18.1651C62.027 18.0564 61.8059 18.0021 61.5421 18.0021C61.449 18.0021 61.3482 18.0099 61.2396 18.0254C61.1387 18.0409 61.0456 18.0681 60.9603 18.1069C60.8749 18.1457 60.8051 18.2 60.7508 18.2698C60.6965 18.3319 60.6694 18.4172 60.6694 18.5258C60.6694 18.6111 60.6926 18.6887 60.7392 18.7585C60.7935 18.8284 60.8672 18.8865 60.9603 18.9331C61.0611 18.9796 61.1814 19.0223 61.321 19.0611C61.5848 19.1232 61.8486 19.1813 62.1123 19.2357C62.3839 19.2822 62.6244 19.3326 62.8338 19.3869C63.0898 19.4412 63.3226 19.5305 63.532 19.6546C63.7493 19.7787 63.9238 19.9494 64.0557 20.1666C64.1953 20.3761 64.2652 20.6515 64.2652 20.9928C64.2652 21.3807 64.1876 21.7027 64.0324 21.9587C63.8773 22.2069 63.6678 22.4048 63.404 22.5522C63.148 22.6996 62.8649 22.8043 62.5545 22.8664C62.252 22.9284 61.9494 22.9595 61.6469 22.9595Z" fill="#3B6875"/>
<path d="M56.3287 22.878V16.7453H57.9579V22.878H56.3287ZM57.1433 16.1286C56.8407 16.1286 56.5963 16.0394 56.4101 15.8609C56.224 15.6747 56.1309 15.4381 56.1309 15.1511C56.1309 14.8485 56.2278 14.6041 56.4218 14.418C56.6157 14.2318 56.8601 14.1387 57.1549 14.1387C57.4264 14.1387 57.6592 14.2318 57.8531 14.418C58.0548 14.5964 58.1557 14.8369 58.1557 15.1394C58.1557 15.4342 58.0587 15.6747 57.8648 15.8609C57.6786 16.0394 57.4381 16.1286 57.1433 16.1286Z" fill="#3B6875"/>
<path d="M52.7601 22.9595C52.4731 22.9595 52.1783 22.9284 51.8757 22.8664C51.5732 22.8043 51.2939 22.6996 51.0379 22.5522C50.7819 22.397 50.5646 22.1914 50.3862 21.9354C50.2078 21.6716 50.0914 21.3458 50.0371 20.9579H51.6895C51.7361 21.0976 51.8176 21.2178 51.9339 21.3187C52.058 21.4195 52.1977 21.4932 52.3529 21.5398C52.5158 21.5863 52.6787 21.6096 52.8416 21.6096C52.9502 21.6096 53.0588 21.6018 53.1674 21.5863C53.276 21.5708 53.3769 21.5398 53.47 21.4932C53.5631 21.4467 53.6368 21.3885 53.6911 21.3187C53.7454 21.2411 53.7726 21.1441 53.7726 21.0277C53.7726 20.9036 53.7338 20.8066 53.6562 20.7368C53.5786 20.667 53.47 20.6127 53.3304 20.5739C53.1907 20.5274 53.0317 20.4847 52.8532 20.4459C52.5352 20.3761 52.1938 20.2985 51.8292 20.2132C51.4646 20.1278 51.1504 20.0037 50.8866 19.8408C50.778 19.7632 50.681 19.6779 50.5957 19.5848C50.5103 19.4917 50.4405 19.3869 50.3862 19.2706C50.3319 19.1542 50.2892 19.0339 50.2582 18.9098C50.2272 18.7779 50.2117 18.6383 50.2117 18.4909C50.2117 18.1573 50.2815 17.8741 50.4211 17.6414C50.5685 17.4009 50.7625 17.207 51.003 17.0596C51.2435 16.9122 51.5111 16.8074 51.8059 16.7454C52.1007 16.6755 52.4033 16.6406 52.7136 16.6406C53.1325 16.6406 53.5204 16.7104 53.8773 16.8501C54.2342 16.982 54.529 17.1914 54.7617 17.4785C54.9944 17.7578 55.138 18.1224 55.1923 18.5724H53.6329C53.6019 18.4017 53.4971 18.2659 53.3187 18.1651C53.1403 18.0564 52.9192 18.0021 52.6554 18.0021C52.5623 18.0021 52.4615 18.0099 52.3529 18.0254C52.252 18.0409 52.1589 18.0681 52.0736 18.1069C51.9882 18.1457 51.9184 18.2 51.8641 18.2698C51.8098 18.3319 51.7826 18.4172 51.7826 18.5258C51.7826 18.6111 51.8059 18.6887 51.8525 18.7585C51.9068 18.8284 51.9805 18.8865 52.0736 18.9331C52.1744 18.9796 52.2947 19.0223 52.4343 19.0611C52.6981 19.1232 52.9619 19.1813 53.2256 19.2357C53.4971 19.2822 53.7376 19.3326 53.9471 19.3869C54.2031 19.4412 54.4359 19.5305 54.6453 19.6546C54.8625 19.7787 55.0371 19.9494 55.169 20.1666C55.3086 20.3761 55.3784 20.6515 55.3784 20.9928C55.3784 21.3807 55.3009 21.7027 55.1457 21.9587C54.9906 22.2069 54.7811 22.4048 54.5173 22.5522C54.2613 22.6996 53.9781 22.8043 53.6678 22.8664C53.3653 22.9284 53.0627 22.9595 52.7601 22.9595Z" fill="#3B6875"/>
<path d="M45.9012 25.7055C45.4279 25.7055 44.9663 25.6435 44.5164 25.5193C44.0664 25.3952 43.6436 25.1858 43.248 24.891L43.7949 23.5876C44.0432 23.7738 44.3263 23.9212 44.6444 24.0298C44.9625 24.1462 45.3155 24.2044 45.7034 24.2044C46.3007 24.2044 46.7429 24.0647 47.03 23.7854C47.3248 23.5062 47.4722 23.1027 47.4722 22.5752V22.2494C47.3403 22.4278 47.1735 22.5713 46.9718 22.6799C46.7778 22.7808 46.5684 22.8545 46.3434 22.901C46.1184 22.9476 45.8934 22.9709 45.6684 22.9709C45.0788 22.9709 44.6056 22.8467 44.2487 22.5985C43.8919 22.3502 43.632 22.0128 43.4691 21.5861C43.3139 21.1516 43.2363 20.659 43.2363 20.1082V16.7451H44.8655V19.7707C44.8655 19.9724 44.8771 20.1741 44.9004 20.3758C44.9237 20.5775 44.978 20.7637 45.0633 20.9344C45.1487 21.1051 45.2767 21.2447 45.4473 21.3533C45.618 21.4542 45.8469 21.5046 46.1339 21.5046C46.5063 21.5046 46.7856 21.4154 46.9718 21.237C47.158 21.0508 47.2821 20.818 47.3442 20.5387C47.414 20.2595 47.4489 19.9685 47.4489 19.666V16.7451H49.0781V21.9934C49.0781 22.5519 49.0237 23.0601 48.9151 23.5178C48.8143 23.9755 48.6397 24.3673 48.3915 24.6931C48.151 25.019 47.8251 25.2672 47.414 25.4379C47.0106 25.6163 46.5063 25.7055 45.9012 25.7055Z" fill="#3B6875"/>
<path d="M40.2715 22.8776V14.6387H41.9007V22.8776H40.2715Z" fill="#3B6875"/>
<path d="M35.6001 22.9595C35.3208 22.9595 35.0493 22.9246 34.7855 22.8548C34.5295 22.7772 34.3006 22.6609 34.0989 22.5057C33.8972 22.3505 33.7382 22.1566 33.6218 21.9239C33.5055 21.6911 33.4473 21.4196 33.4473 21.1093C33.4473 20.6904 33.5326 20.3568 33.7033 20.1085C33.874 19.8525 34.1028 19.6585 34.3899 19.5267C34.6769 19.3948 35.0066 19.3056 35.379 19.259C35.7591 19.2125 36.1509 19.1892 36.5543 19.1892H37.4387C37.4387 18.9642 37.3961 18.7664 37.3107 18.5957C37.2331 18.4173 37.1129 18.2815 36.95 18.1884C36.7871 18.0876 36.5776 18.0371 36.3216 18.0371C36.1587 18.0371 35.9996 18.0604 35.8445 18.107C35.6971 18.1457 35.5729 18.2039 35.4721 18.2815C35.3712 18.3591 35.3053 18.4599 35.2743 18.5841H33.6218C33.6684 18.2427 33.777 17.9518 33.9477 17.7113C34.1183 17.463 34.3317 17.2613 34.5877 17.1062C34.8437 16.951 35.123 16.8385 35.4255 16.7687C35.7359 16.6911 36.0539 16.6523 36.3798 16.6523C37.2719 16.6523 37.9314 16.9084 38.358 17.4204C38.7847 17.9246 38.9981 18.6423 38.9981 19.5732V22.8781H37.5318L37.5085 22.0868C37.3146 22.3583 37.0935 22.5561 36.8452 22.6803C36.6047 22.8044 36.372 22.882 36.147 22.913C35.922 22.944 35.7397 22.9595 35.6001 22.9595ZM35.9725 21.6679C36.244 21.6679 36.4923 21.6135 36.7172 21.5049C36.9422 21.3963 37.1206 21.2489 37.2525 21.0627C37.3844 20.8765 37.4504 20.6671 37.4504 20.4343V20.2831H36.3332C36.1703 20.2831 36.0113 20.2908 35.8561 20.3063C35.7087 20.3218 35.5729 20.3529 35.4488 20.3994C35.3324 20.4382 35.2393 20.5042 35.1695 20.5973C35.0997 20.6904 35.0648 20.8145 35.0648 20.9696C35.0648 21.1248 35.1036 21.2567 35.1812 21.3653C35.2665 21.4661 35.379 21.5437 35.5186 21.598C35.6583 21.6446 35.8096 21.6679 35.9725 21.6679Z" fill="#3B6875"/>
<path d="M26.6113 22.878V16.7454H28.1358L28.2172 17.4552C28.3879 17.2457 28.5818 17.0828 28.7991 16.9665C29.024 16.8423 29.249 16.757 29.474 16.7104C29.7067 16.6639 29.9162 16.6406 30.1024 16.6406C30.692 16.6406 31.1497 16.7686 31.4756 17.0246C31.8091 17.2807 32.0458 17.6259 32.1854 18.0603C32.3328 18.487 32.4065 18.9641 32.4065 19.4917V22.878H30.7773V19.7011C30.7773 19.5149 30.7618 19.3288 30.7308 19.1426C30.6998 18.9564 30.6416 18.7857 30.5562 18.6305C30.4787 18.4754 30.3662 18.3512 30.2188 18.2582C30.0714 18.1651 29.8774 18.1185 29.6369 18.1185C29.3266 18.1185 29.0667 18.1961 28.8573 18.3512C28.6478 18.5064 28.4926 18.7159 28.3918 18.9796C28.2909 19.2434 28.2405 19.5343 28.2405 19.8524V22.878H26.6113Z" fill="#3B6875"/>
<path d="M17.709 22.8776L20.9208 14.6387H22.7827L25.9596 22.8776H24.1675L23.6554 21.4695H20.0131L19.5011 22.8776H17.709ZM20.5484 19.9684H23.1318L21.8517 16.4075L20.5484 19.9684Z" fill="#3B6875"/>
<path d="M37.7358 8.42512C36.898 8.42512 36.1843 8.25057 35.5947 7.90146C35.0051 7.5446 34.5551 7.05197 34.2448 6.42357C33.9345 5.78742 33.7793 5.04654 33.7793 4.20092C33.7793 3.57253 33.8646 3.00232 34.0353 2.4903C34.2137 1.97052 34.4698 1.52444 34.8033 1.15205C35.1447 0.779673 35.5597 0.496508 36.0485 0.302559C36.5372 0.100853 37.0919 0 37.7126 0C38.341 0 38.9034 0.100853 39.3999 0.302559C39.8964 0.504266 40.3076 0.806825 40.6334 1.21024C40.967 1.60589 41.1843 2.1024 41.2851 2.69976H39.5978C39.5357 2.44375 39.4232 2.23429 39.2603 2.07137C39.0974 1.9007 38.8918 1.77269 38.6435 1.68735C38.403 1.60201 38.1276 1.55935 37.8173 1.55935C37.3906 1.55935 37.0299 1.63305 36.7351 1.78045C36.4403 1.92785 36.1998 2.12955 36.0136 2.38557C35.8352 2.63382 35.7033 2.92086 35.6179 3.2467C35.5403 3.56477 35.5016 3.89449 35.5016 4.23583C35.5016 4.70131 35.5791 5.13576 35.7343 5.53917C35.8895 5.93482 36.1338 6.25678 36.4674 6.50503C36.801 6.74553 37.2432 6.86578 37.794 6.86578C38.1587 6.86578 38.4806 6.81147 38.7599 6.70286C39.0469 6.58649 39.2758 6.41582 39.4465 6.19083C39.6249 5.9581 39.7258 5.67881 39.749 5.35298H37.5031V3.92164H41.4597V4.37548C41.4597 5.21334 41.32 5.93482 41.0407 6.53994C40.7614 7.14506 40.3464 7.61054 39.7956 7.93637C39.2448 8.2622 38.5582 8.42512 37.7358 8.42512Z" fill="#3B6875"/>
<path d="M29.3139 8.42512C28.4683 8.42512 27.7468 8.25445 27.1494 7.9131C26.5598 7.56399 26.1099 7.07524 25.7995 6.44685C25.497 5.81845 25.3457 5.08533 25.3457 4.24747C25.3457 3.3941 25.5009 2.64934 25.8112 2.01318C26.1293 1.37703 26.5831 0.884405 27.1727 0.535298C27.7623 0.178433 28.4722 0 29.3023 0C29.9306 0 30.4931 0.108611 30.9896 0.325833C31.4861 0.535298 31.8856 0.849494 32.1882 1.26842C32.4985 1.67959 32.6925 2.18774 32.7701 2.79286H31.1642C31.0633 2.41272 30.8577 2.11404 30.5474 1.89682C30.2448 1.67184 29.8414 1.55935 29.3372 1.55935C28.7786 1.55935 28.3325 1.68735 27.9989 1.94336C27.6731 2.19162 27.4365 2.51745 27.2891 2.92086C27.1417 3.31652 27.068 3.73545 27.068 4.17765C27.068 4.63537 27.1455 5.06981 27.3007 5.48098C27.4559 5.89215 27.7002 6.22575 28.0338 6.48176C28.3752 6.73777 28.8213 6.86578 29.3721 6.86578C29.6979 6.86578 29.9888 6.81923 30.2448 6.72613C30.5009 6.62528 30.7103 6.48176 30.8732 6.29557C31.0439 6.10938 31.1603 5.88828 31.2223 5.63226H32.8864C32.8166 6.22962 32.6149 6.73777 32.2813 7.1567C31.9477 7.57563 31.5249 7.8937 31.0129 8.11093C30.5009 8.32039 29.9345 8.42512 29.3139 8.42512Z" fill="#3B6875"/>
<path d="M18.5703 8.33171V0.0927734H24.5051V1.64048H20.2344V3.50239H23.9V4.99191H20.2344V6.79563H24.5051V8.33171H18.5703Z" fill="#3B6875"/>
<path fill-rule="evenodd" clip-rule="evenodd" d="M13.7086 10.2769L12.9551 15.4176L11.144 11.8874H9.95321L9.52226 11.2573L8.72234 12.2968H2.84029C2.37621 12.2968 2 11.9302 2 11.4779C2 11.0256 2.37621 10.6589 2.84029 10.6589H7.88204L9.603 8.42247L10.8526 10.2494H12.015L12.9322 3.99121L14.5979 4.00545L15.6088 11.8874H16.1858L17.3152 9.6858L18.7338 11.0684H21.7469C22.2109 11.0684 22.5872 11.435 22.5872 11.8874C22.5872 12.3397 22.2109 12.7063 21.7469 12.7063H18.0376L17.7756 12.4509L17.2244 13.5253H16.6322L16.2815 17.2849L14.6109 17.3123L13.7086 10.2769Z" fill="white"/>
<path fill-rule="evenodd" clip-rule="evenodd" d="M13.7092 6.69849L12.7211 13.9398L11.4204 11.216H10.2177L9.59406 10.2366L8.58322 11.6477H3.01773C2.79004 11.6477 2.60547 11.4544 2.60547 11.216C2.60547 10.9777 2.79004 10.7844 3.01773 10.7844H8.17096L9.63367 8.74252L10.659 10.3528H11.9299L12.2782 11.082L13.3283 3.38574L14.1455 3.39325L15.3208 13.2368L15.4213 12.0793H16.3675L17.3338 10.0558L18.4421 11.216H21.5694C21.797 11.216 21.9816 11.4093 21.9816 11.6477C21.9816 11.8861 21.797 12.0793 21.5694 12.0793H18.1005L17.5597 11.5131L16.877 12.9426H16.1742L15.796 17.2979L14.9764 17.3123L13.7092 6.69849Z" fill="#3B6875"/>
<path d="M23.1935 11.5606C23.1935 12.0622 22.7868 12.4689 22.2852 12.4689C21.7836 12.4689 21.377 12.0622 21.377 11.5606C21.377 11.059 21.7836 10.6523 22.2852 10.6523C22.7868 10.6523 23.1935 11.059 23.1935 11.5606Z" fill="#3B6875"/>
<defs>
<radialGradient id="paint0_radial_2229_3947" cx="0" cy="0" r="1" gradientUnits="userSpaceOnUse" gradientTransform="translate(32.5 14) rotate(90) scale(12 25.5)">
<stop stop-color="#BAD9E2"/>
<stop offset="1" stop-color="#799CA6" stop-opacity="0"/>
</radialGradient>
</defs>
</svg>
